<?xml version="1.0" encoding="UTF-8" standalone="no"?>
<!-- Created with Inkscape (http://www.inkscape.org/) -->

<svg
   version="1.1"
   id="svg2"
   width="12400"
   height="668"
   viewBox="0 0 12400 668"
   sodipodi:docname="LEVEL_COLLISION1.svg"
   inkscape:version="1.2.2 (732a01da63, 2022-12-09)"
   xmlns:inkscape="http://www.inkscape.org/namespaces/inkscape"
   xmlns:sodipodi="http://sodipodi.sourceforge.net/DTD/sodipodi-0.dtd"
   xmlns:xlink="http://www.w3.org/1999/xlink"
   xmlns="http://www.w3.org/2000/svg"
   xmlns:svg="http://www.w3.org/2000/svg">
  <defs
     id="defs6" />
  <sodipodi:namedview
     id="namedview4"
     pagecolor="#ffffff"
     bordercolor="#000000"
     borderopacity="0.25"
     inkscape:showpageshadow="2"
     inkscape:pageopacity="0.0"
     inkscape:pagecheckerboard="0"
     inkscape:deskcolor="#d1d1d1"
     showgrid="false"
     inkscape:zoom="0.13799987"
     inkscape:cx="6286.2377"
     inkscape:cy="-898.55156"
     inkscape:window-width="2560"
     inkscape:window-height="1369"
     inkscape:window-x="3992"
     inkscape:window-y="581"
     inkscape:window-maximized="1"
     inkscape:current-layer="g8" />
  <g
     inkscape:groupmode="layer"
     inkscape:label="Image"
     id="g8">
    <image
       width="12400"
       height="668"
       preserveAspectRatio="none"
       xlink:href="BACKGROUND_Collision.png"
       id="image10" />
    <path
       style="fill:#000000"
       d="M 0,668 V 261 l 1448,-1.33262 V 400 h 101.1782 l -1.467,99 H 1578 v 99 h 881.5631 l 252.736,-29 h 505.3387 L 3443.5,598.40526 3732,599.08808 V 500 h 90 v -99 h 124 V 260 h 2043.7591 l 205.7409,29.99947 261,-0.01 L 6661.3796,261 H 7427 v 139 h 128 v 100 h 80 V 600 L 8425.5,599.996 8629.2015,569 h 263.4884 L 9095.5,598.76775 10736,597.85737 V 500 h 89 V 399 h 127 V 259 h 263.756 l 204.744,27.99801 979.5,0.002 v 381 H 0 Z"
       id="path170"
       sodipodi:nodetypes="cccccccccccccccccccccccccccccccccccccccccccc" />
  </g>
</svg>
